<?xml version="1.0" standalone="no"?>
<svg version="1.0" xmlns="http://www.w3.org/2000/svg"
 width="32px" height="32px" viewBox="0 0 4000.000000 4000.000000"
 preserveAspectRatio="xMidYMid meet">

<g transform="translate(0.000000,4000.000000) scale(0.100000,-0.100000)"
fill="#000000" stroke="none">
<path d="M12360 34670 c-503 -107 -940 -575 -1264 -1353 -264 -634 -424 -1379
-498 -2317 -20 -255 -17 -1099 5 -1365 127 -1540 551 -2795 1265 -3747 132
-176 236 -293 420 -478 l184 -184 -15 -46 c-8 -25 -65 -191 -125 -370 -106
-311 -198 -601 -277 -870 -131 -447 -435 -1021 -739 -1394 -163 -201 -315
-335 -497 -441 -253 -147 -361 -262 -425 -451 -19 -57 -24 -93 -24 -169 0
-116 11 -165 60 -270 65 -140 165 -251 317 -354 70 -46 247 -135 305 -153 21
-6 38 -14 38 -18 0 -3 -66 -51 -147 -105 -189 -126 -275 -211 -332 -326 -118
-240 -52 -493 193 -742 176 -178 381 -320 771 -532 224 -122 290 -162 487
-292 310 -205 633 -454 1205 -930 199 -166 395 -324 435 -351 118 -79 333
-212 470 -291 l128 -72 -141 -85 c-277 -167 -450 -304 -694 -548 -208 -208
-315 -338 -460 -556 -232 -352 -377 -673 -485 -1075 -22 -80 -52 -159 -92
-240 -166 -329 -288 -645 -396 -1021 -26 -89 -36 -109 -83 -165 -379 -449
-587 -1141 -566 -1889 10 -373 65 -684 178 -1006 l41 -117 -21 -96 c-75 -336
-86 -748 -31 -1214 78 -660 211 -1168 427 -1626 29 -63 52 -115 51 -116 -2 -1
-59 -12 -128 -24 -69 -12 -242 -47 -384 -77 -1204 -253 -1926 -552 -2088 -866
-68 -132 -35 -270 93 -395 81 -78 133 -118 235 -176 222 -128 479 -230 914
-362 680 -207 1931 -429 3235 -574 2808 -314 6435 -404 9715 -241 2735 136
4931 422 6340 825 375 107 758 267 960 400 103 68 219 186 255 258 57 118 33
237 -72 358 -269 310 -1082 598 -2381 845 -129 24 -242 44 -253 44 -25 0 -24
1 11 59 48 77 184 365 230 487 l42 111 72 56 c196 150 579 521 771 747 677
792 992 1576 925 2295 -21 219 -89 482 -167 645 -49 101 -135 188 -218 219
-145 55 -302 5 -467 -149 -82 -76 -183 -193 -433 -499 -123 -151 -291 -342
-310 -353 -9 -6 -14 7 -19 45 -32 249 -134 783 -221 1151 -243 1025 -481 1718
-830 2416 -490 977 -1126 1795 -1945 2500 -98 85 -303 250 -372 299 -42 30
-48 39 -48 70 0 35 11 45 372 346 603 504 883 721 1228 952 182 122 240 156
453 272 502 272 775 480 924 703 165 249 149 515 -45 720 -44 47 -117 104
-224 175 -87 59 -158 109 -158 112 0 4 24 15 53 25 166 58 339 167 457 286
158 160 229 327 217 515 -9 153 -82 301 -205 417 -64 61 -117 97 -287 196
-315 184 -669 634 -950 1207 -131 267 -180 395 -274 715 -66 220 -187 598
-302 937 -49 145 -89 264 -89 266 0 1 71 74 158 162 375 380 663 788 923 1307
616 1230 888 2891 738 4503 -94 1018 -335 1907 -684 2520 -132 234 -247 388
-410 550 -184 184 -379 304 -590 362 -92 26 -114 28 -275 28 -204 0 -260 -11
-500 -102 -489 -185 -957 -425 -1433 -736 -1181 -772 -2372 -2042 -3296 -3514
-46 -73 -90 -133 -98 -133 -7 0 -46 7 -86 15 -254 52 -663 105 -965 125 -198
13 -930 13 -1137 0 -312 -20 -703 -71 -1003 -131 -57 -11 -105 -19 -106 -17
-2 2 -47 73 -101 158 -271 428 -502 755 -876 1235 -87 112 -332 404 -462 550
-182 205 -592 621 -792 805 -727 665 -1472 1163 -2255 1507 -266 117 -508 204
-633 228 -109 21 -309 19 -417 -5z m440 -425 c196 -63 585 -230 820 -352 768
-401 1442 -912 2146 -1625 653 -662 1264 -1451 1795 -2321 130 -213 151 -221
419 -163 294 63 583 106 935 138 192 18 1118 18 1310 0 343 -32 686 -82 935
-138 136 -31 185 -32 239 -5 49 26 59 39 191 253 652 1059 1489 2065 2310
2775 728 629 1459 1081 2226 1376 254 98 361 114 522 81 312 -64 608 -359 860
-855 304 -598 492 -1346 578 -2294 19 -213 28 -1039 14 -1260 -123 -1870 -726
-3379 -1712 -4282 -161 -147 -184 -182 -176 -265 2 -24 57 -205 120 -403 150
-462 219 -688 312 -1012 84 -294 168 -516 290 -768 334 -690 733 -1175 1160
-1415 115 -64 179 -117 206 -171 26 -50 25 -75 -6 -137 -52 -105 -217 -218
-412 -281 -93 -31 -281 -71 -331 -71 -15 0 -51 -7 -81 -16 -67 -20 -150 -99
-168 -160 -27 -94 -7 -200 51 -266 17 -20 178 -132 357 -249 360 -235 404
-268 418 -308 20 -56 -32 -145 -149 -256 -145 -137 -308 -246 -662 -444 -501
-278 -914 -584 -1722 -1276 -148 -127 -301 -256 -340 -286 -216 -173 -762
-497 -1230 -732 -396 -198 -988 -454 -1439 -623 -31 -11 -55 -28 -65 -45 -14
-24 -33 -32 -166 -67 -277 -75 -549 -134 -790 -172 -165 -26 -188 -34 -223
-74 -41 -47 -146 -237 -224 -410 -183 -399 -603 -898 -1123 -1331 -104 -87
-356 -277 -361 -273 -2 2 -11 69 -19 149 -21 189 -49 355 -86 509 -317 1301
-1342 2330 -2641 2652 l-128 32 -1 825 c0 921 1 898 -69 1015 -67 111 -197
203 -319 226 -74 14 -656 13 -723 -1 -145 -30 -271 -129 -335 -265 l-38 -79
-8 -860 c-5 -473 -10 -861 -12 -863 -1 -2 -63 -19 -136 -38 -74 -18 -189 -52
-256 -75 l-121 -41 -169 98 c-189 110 -450 274 -589 371 -51 35 -236 186 -411
336 -860 736 -1265 1039 -1733 1297 -102 56 -230 129 -285 163 -299 182 -519
383 -541 495 -11 54 27 88 313 277 148 98 309 204 358 237 50 33 103 76 118
96 75 97 71 246 -8 340 -50 60 -102 82 -243 102 -281 41 -484 121 -617 242
-104 96 -129 168 -83 249 27 49 66 79 202 158 60 35 141 87 180 116 511 377
1026 1212 1256 2035 84 299 192 653 366 1196 38 120 64 218 64 244 0 69 -31
120 -122 196 -279 233 -559 555 -791 909 -229 351 -437 785 -592 1235 -260
759 -389 1534 -421 2520 -5 169 8 687 21 805 2 22 7 81 10 130 4 50 15 169 26
265 125 1121 430 2031 850 2535 167 200 354 327 544 371 94 21 251 12 355 -21z
m3550 -15128 l35 -22 -270 -5 c-295 -5 -303 -7 -342 -67 -17 -25 -18 -81 -21
-789 l-2 -761 -38 -7 c-20 -3 -54 -6 -74 -6 l-38 0 0 778 0 778 23 44 c40 78
48 80 392 80 294 0 301 -1 335 -23z m90 -2006 c722 -97 1378 -420 1889 -931
155 -156 264 -289 396 -485 331 -494 513 -1020 558 -1612 l4 -53 -3268 0
-3269 0 0 48 c0 26 7 103 15 172 105 896 589 1722 1321 2256 492 359 1046 565
1674 624 147 14 513 3 680 -19z m9230 -311 c948 -804 1664 -1809 2155 -3025
385 -953 727 -2422 804 -3455 24 -316 24 -319 2 -427 -56 -280 -149 -609 -241
-859 -28 -76 -53 -143 -54 -149 -3 -11 -8 -24 -51 -125 -29 -69 -171 -358
-185 -375 -4 -5 -24 -41 -45 -79 -35 -63 -139 -222 -192 -292 -142 -186 -195
-248 -318 -367 -119 -116 -350 -300 -446 -354 -17 -10 -39 -23 -48 -28 -418
-262 -1029 -401 -1566 -356 -155 13 -195 22 -242 59 -58 44 -80 109 -87 257
-12 285 -80 490 -179 541 -48 26 -87 35 -87 21 0 -34 -30 -275 -45 -362 -20
-119 -61 -278 -81 -320 -9 -16 -38 -91 -66 -165 -129 -346 -273 -557 -497
-726 -96 -72 -284 -169 -405 -208 -178 -59 -264 -71 -496 -70 -185 0 -230 3
-320 22 -243 53 -461 146 -676 291 -681 457 -1221 1210 -1517 2116 -116 355
-176 624 -219 980 -20 168 -17 657 5 815 38 267 100 485 196 686 170 354 392
549 767 673 168 56 249 71 410 78 286 12 537 -62 799 -234 316 -208 627 -571
846 -986 83 -159 108 -182 196 -182 58 0 93 20 131 75 21 31 22 43 22 204 0
518 113 968 336 1342 144 241 351 454 594 608 181 115 424 216 607 253 104 20
308 23 398 4 187 -38 356 -121 525 -258 82 -67 289 -275 388 -391 70 -82 75
-77 42 42 -10 39 -26 112 -35 162 -30 177 -136 493 -164 487 -6 -2 -8 3 -5 10
6 17 -78 161 -146 250 -65 85 -202 223 -285 288 -85 66 -205 139 -333 202
-161 79 -241 145 -318 259 -96 144 -140 299 -131 467 3 53 16 195 31 316 29
254 52 527 66 805 13 252 12 843 -1 1035 -14 214 -18 365 -12 482 l5 103 52
-42 c28 -23 80 -67 116 -98z m-1275 -101 c-4 -5 -12 -9 -18 -8 -9 0 -8 2 1 6
6 2 9 10 6 15 -4 7 -2 8 5 4 6 -4 9 -12 6 -17z m-872 -855 c275 -71 491 -277
577 -549 28 -90 38 -267 20 -368 -26 -151 -301 -768 -493 -1107 -11 -19 -31
-55 -45 -80 -14 -25 -40 -69 -59 -98 -18 -29 -33 -55 -33 -58 0 -3 -13 -24
-28 -47 -16 -23 -59 -89 -97 -147 -38 -58 -72 -107 -75 -110 -3 -3 -17 -23
-32 -46 -106 -163 -440 -527 -583 -635 -164 -124 -268 -186 -408 -244 -150
-61 -260 -84 -462 -95 -206 -11 -309 -23 -444 -51 -416 -85 -791 -288 -1112
-601 -52 -51 -109 -109 -125 -128 -33 -39 -34 -32 7 -125 26 -61 124 -359 150
-459 18 -72 21 -95 12 -125 -6 -20 -25 -83 -42 -141 -59 -198 -111 -554 -111
-760 l0 -78 -137 -52 c-186 -71 -521 -189 -666 -234 -188 -59 -290 -77 -492
-83 -349 -11 -586 48 -974 243 -273 136 -454 266 -636 455 -204 213 -332 451
-397 740 -20 92 -23 130 -23 334 0 255 7 306 72 515 106 344 326 653 621 873
172 128 327 207 587 297 894 311 1667 759 2320 1342 402 359 799 838 968 1168
27 52 50 96 51 97 1 2 65 12 142 23 381 56 830 144 1189 235 137 34 273 70
301 80 139 45 325 53 457 19z m-4521 -2174 c-58 -35 -327 -168 -480 -237 -176
-79 -372 -156 -582 -229 l-154 -54 -1957 0 -1956 0 -67 95 c-84 118 -264 303
-374 384 l-84 61 2844 0 2843 0 -33 -20z m-6017 -195 c180 -47 347 -178 520
-407 249 -329 435 -801 496 -1258 7 -52 13 -165 12 -250 -1 -778 -506 -1740
-996 -1895 -347 -110 -762 157 -1016 654 -130 254 -221 566 -263 901 -8 63
-13 204 -13 355 1 208 5 276 24 405 89 593 321 1071 646 1330 184 146 414 211
590 165z m13192 -552 c0 -9 -4 -10 -14 -2 -7 6 -13 12 -13 14 0 1 6 2 13 2 8
0 14 -6 14 -14z m-1352 -31 c-3 -3 -11 0 -18 7 -9 10 -8 11 6 5 10 -3 15 -9
12 -12z m-7727 -194 c-130 -128 -178 -183 -272 -317 l-66 -94 0 262 0 261 227
0 227 0 -116 -112z m-2955 85 c-3 -7 -9 -10 -14 -7 -5 3 -6 -3 -2 -12 5 -14 8
-12 20 10 l14 26 489 0 490 0 6 -25 c3 -14 23 -103 43 -198 32 -144 36 -174
24 -182 -15 -11 -8 -45 8 -45 14 0 11 18 -3 23 -7 2 -10 8 -5 12 20 22 38 -49
22 -88 -5 -13 -3 -16 8 -11 14 5 16 -3 14 -52 -2 -51 -5 -60 -27 -71 -14 -7
-36 -11 -50 -8 -17 4 -20 3 -12 -3 11 -7 10 -11 -3 -16 -10 -3 -24 -1 -31 5
-11 9 -13 9 -9 -2 3 -10 -42 -37 -153 -91 -159 -78 -377 -214 -501 -313 -38
-29 -71 -51 -75 -48 -3 4 -6 2 -6 -4 0 -6 -6 -13 -12 -16 -8 -3 -13 5 -14 22
0 14 -4 47 -8 74 -6 36 -5 47 6 47 10 0 9 3 -2 10 -8 5 -16 24 -16 42 -1 18
-4 40 -7 48 -8 23 -39 210 -39 237 0 13 -5 20 -11 16 -5 -3 -7 -1 -4 4 4 6 3
24 -2 39 -59 189 -71 235 -65 245 4 7 3 9 -3 6 -10 -6 -36 65 -33 87 1 5 -4
12 -11 17 -8 5 -13 25 -13 49 1 22 -2 40 -7 40 -5 0 -6 -8 -3 -17 2 -10 -6 5
-19 32 -24 49 -26 72 -5 59 5 -3 2 8 -7 26 -9 17 -19 29 -22 26 -3 -3 0 -12 7
-21 7 -9 10 -18 7 -21 -8 -8 -29 35 -22 45 3 5 -1 11 -7 14 -7 3 6 4 28 4 29
-1 40 -5 37 -14z m1607 -958 c0 -694 3 -975 11 -975 6 0 144 51 307 114 334
128 368 140 380 132 5 -3 12 -48 15 -100 12 -186 77 -430 163 -615 24 -52 43
-95 41 -97 -1 -2 -36 -10 -77 -18 -113 -24 -193 -68 -275 -150 -82 -83 -118
-145 -145 -252 -35 -135 -19 -260 47 -387 93 -177 275 -287 478 -287 153 0
276 51 386 160 70 69 131 176 144 249 l7 40 106 -73 c128 -87 251 -160 375
-222 51 -26 97 -50 103 -56 14 -10 6 -51 -7 -42 -5 3 -6 -3 -2 -13 6 -15 9
-14 17 10 5 15 16 27 23 27 16 0 73 -28 73 -36 0 -2 -8 0 -18 5 -14 7 -21 5
-30 -10 -7 -11 -8 -19 -2 -19 5 0 10 5 10 10 0 6 7 10 16 10 8 0 13 -4 10 -8
-3 -5 1 -9 9 -9 8 0 13 3 12 6 -2 7 7 11 24 11 5 0 7 -5 3 -12 -5 -8 -2 -9 9
-5 10 3 17 3 17 -2 0 -5 12 -8 26 -8 14 0 39 -11 56 -23 17 -13 28 -18 24 -12
-4 6 2 8 14 5 11 -3 17 -10 14 -15 -4 -6 3 -8 17 -4 22 7 23 6 6 -7 -13 -11
-15 -16 -5 -19 7 -3 18 2 24 10 10 14 16 14 45 1 19 -7 37 -13 40 -12 4 1 17
-9 29 -22 13 -14 30 -25 38 -25 9 0 6 7 -9 20 -13 10 -19 19 -12 20 6 0 15 -5
18 -10 4 -6 10 -8 14 -6 4 3 8 -9 9 -25 1 -16 -3 -29 -9 -29 -6 0 -8 -8 -4
-20 5 -15 3 -18 -9 -14 -11 4 -16 0 -16 -11 0 -11 5 -15 15 -11 15 5 21 -5 9
-17 -3 -3 -8 -28 -10 -54 -4 -47 -31 -148 -34 -128 -1 6 -2 24 -2 40 l1 30 -8
-30 c-5 -16 -12 -39 -16 -50 -4 -12 -3 -15 2 -8 19 26 33 -2 27 -51 -7 -45 -8
-47 -19 -26 -12 22 -12 22 -11 -8 0 -16 5 -28 10 -24 5 3 6 -11 3 -34 -4 -21
-7 -47 -7 -56 0 -11 -8 -18 -20 -18 -14 0 -18 -5 -13 -17 4 -10 11 -21 17 -25
6 -4 5 -12 -3 -22 -7 -9 -11 -23 -7 -31 3 -8 1 -15 -5 -15 -6 0 -8 -9 -4 -19
7 -24 -4 -71 -17 -71 -6 0 -8 9 -5 20 3 11 1 18 -4 14 -14 -8 -11 -32 6 -41
13 -8 13 -18 0 -87 -8 -43 -15 -81 -15 -84 0 -4 -5 0 -10 8 -5 8 -10 11 -10 5
0 -5 4 -16 9 -24 5 -7 4 -31 -1 -55 -9 -36 -13 -57 -20 -113 -1 -7 -5 -13 -9
-13 -5 0 -6 -7 -3 -15 4 -8 1 -15 -5 -15 -14 0 -15 37 -1 45 6 3 10 14 10 23
-1 12 -5 10 -15 -8 -19 -33 -19 -70 0 -70 11 0 13 -9 9 -42 -3 -24 -12 -48
-20 -54 -8 -6 -10 -14 -4 -20 11 -11 -9 -156 -23 -165 -5 -4 -7 -11 -3 -17 3
-5 1 -32 -5 -58 -13 -63 -18 -93 -21 -126 -1 -16 -6 -28 -10 -28 -5 0 -6 12
-3 28 5 25 5 26 -5 4 -7 -16 -7 -30 1 -43 11 -22 3 -59 -13 -59 -6 0 -6 -6 2
-15 10 -12 10 -21 1 -41 -6 -14 -9 -30 -5 -35 3 -5 -2 -17 -12 -26 -11 -11
-13 -18 -5 -21 13 -4 15 -32 2 -32 -5 0 -9 -17 -8 -37 1 -20 -4 -38 -11 -41
-7 -2 -12 -11 -12 -20 0 -15 2 -15 11 -2 8 11 9 8 4 -15 -12 -50 -13 -59 -14
-73 -1 -7 -5 -10 -11 -7 -6 4 -10 -6 -9 -22 0 -25 1 -26 9 -8 7 14 8 8 4 -20
-4 -22 -15 -54 -25 -71 -20 -33 -28 -83 -9 -54 7 11 9 0 5 -35 -10 -87 -27
-160 -39 -167 -8 -6 -7 -8 2 -8 7 0 10 -5 7 -10 -4 -6 -11 -8 -16 -5 -5 4 -9
-1 -9 -10 0 -9 4 -14 9 -10 6 3 9 -3 8 -14 0 -11 -5 -17 -10 -14 -5 3 -6 -8
-2 -26 4 -21 3 -31 -5 -31 -8 0 -10 -9 -7 -22 3 -13 1 -43 -4 -68 -6 -25 -10
-56 -10 -69 1 -17 -3 -22 -15 -17 -14 5 -15 4 -4 -9 8 -9 10 -24 4 -42 -4 -16
-6 -33 -5 -39 1 -6 -10 -19 -24 -28 -14 -9 -25 -26 -25 -37 0 -13 -4 -18 -12
-13 -7 5 -8 3 -4 -5 5 -7 0 -19 -10 -27 -18 -14 -18 -14 3 -4 13 6 26 22 29
35 6 24 34 56 34 38 0 -5 -3 -13 -7 -17 -4 -3 -8 -16 -10 -27 -2 -11 -9 -30
-15 -42 -7 -12 -13 -24 -14 -27 -4 -17 -46 -100 -50 -100 -3 0 -3 4 0 8 6 9
-30 9 -39 0 -3 -3 -7 -19 -10 -37 -2 -22 0 -29 8 -24 15 9 -44 -66 -71 -90
-15 -14 -27 -17 -44 -11 -45 16 -65 12 -62 -12 1 -13 5 -27 8 -33 4 -5 -2 -14
-11 -20 -10 -6 -13 -11 -8 -11 17 0 34 21 28 36 -4 10 0 12 13 7 11 -4 15 -3
10 5 -10 16 14 26 27 12 9 -10 9 -11 0 -6 -8 4 -13 2 -13 -6 0 -18 -110 -99
-123 -91 -5 3 -4 9 3 13 9 5 9 9 1 14 -6 4 -12 2 -12 -3 -1 -6 -3 -15 -4 -21
-1 -5 -3 -14 -4 -18 -1 -8 -94 -53 -138 -66 -19 -6 -22 -4 -17 11 5 14 3 14
-9 -3 -18 -23 -99 -50 -117 -39 -6 4 -17 2 -25 -5 -9 -7 -15 -8 -20 0 -3 5
-12 10 -18 10 -7 0 -6 -4 3 -10 10 -6 -375 -9 -1060 -7 l-1075 2 1045 5 1045
5 -1065 2 c-750 2 -1061 -1 -1050 -8 11 -8 -4 -9 -55 -5 -73 6 -185 34 -226
57 -13 7 -28 13 -34 14 -15 1 -66 27 -99 49 l-28 19 22 12 c28 15 38 70 15 79
-8 3 -15 12 -15 19 0 8 -7 14 -15 14 -13 0 -13 -2 0 -17 8 -9 15 -28 15 -42 0
-15 6 -29 13 -32 6 -3 0 -4 -15 -1 -15 3 -30 1 -33 -5 -4 -6 1 -7 12 -4 14 5
15 4 4 -4 -19 -13 -37 -4 -104 55 -126 111 -219 269 -256 435 -11 51 -82 480
-157 953 -75 473 -151 955 -169 1070 -126 787 -215 1357 -215 1377 0 15 16 39
41 63 65 63 209 259 281 385 216 372 359 780 417 1190 l16 115 122 7 122 7 83
64 c130 100 273 191 424 267 76 38 141 70 146 70 4 0 8 -113 8 -251 0 -235 -1
-251 -17 -245 -17 6 -17 5 0 -8 16 -13 17 -36 15 -305 l-3 -291 25 0 c36 1
101 16 218 52 l102 31 0 1009 0 1008 75 0 75 0 0 -975z m7870 251 c0 -2 -8
-10 -17 -17 -16 -13 -17 -12 -4 4 13 16 21 21 21 13z m-170 -189 c0 -2 -10
-12 -22 -23 l-23 -19 19 23 c18 21 26 27 26 19z m-140 -140 c0 -2 -17 -19 -37
-38 l-38 -34 34 38 c33 34 41 42 41 34z m-425 -25 c-3 -3 -11 0 -18 7 -9 10
-8 11 6 5 10 -3 15 -9 12 -12z m814 -177 c-36 -120 -73 -303 -90 -438 -6 -54
-13 -96 -14 -95 -2 2 -30 39 -62 83 -33 44 -83 107 -111 140 l-51 59 177 176
c97 98 178 176 179 176 1 -1 -12 -46 -28 -101z m-2955 -14 c3 -5 -1 -14 -8
-20 -12 -10 -14 -9 -11 6 2 10 4 19 4 21 2 5 10 2 15 -7z m9289 -118 c61 -184
80 -311 81 -523 0 -205 -20 -351 -73 -536 -57 -198 -166 -453 -267 -625 l-45
-77 -32 20 c-274 172 -482 321 -583 420 l-51 50 -33 -17 c-17 -9 -33 -15 -35
-13 -1 2 -8 71 -14 153 l-12 150 63 54 c172 148 332 324 640 702 162 200 298
349 316 349 5 0 26 -48 45 -107z m-9323 91 c0 -8 -19 -13 -24 -6 -3 5 1 9 9 9
8 0 15 -2 15 -3z m-3916 -1423 c15 -6 5 -11 -40 -20 -32 -6 -70 -18 -82 -25
l-24 -13 25 -16 c61 -40 55 -139 -13 -207 -63 -63 -162 -78 -205 -30 -10 11
-21 17 -26 14 -17 -10 -31 -91 -31 -173 0 -92 -4 -92 -39 -1 -70 185 31 397
222 464 46 16 179 20 213 7z m-4722 -437 c251 -240 537 -357 837 -341 120 6
192 23 302 71 l76 32 16 -100 c9 -56 37 -231 62 -391 26 -159 89 -560 141
-890 52 -330 112 -708 134 -840 50 -302 120 -752 120 -765 0 -14 -33 -12 -135
9 -426 90 -793 325 -1065 682 -370 483 -606 1219 -691 2149 -12 133 -15 582
-4 599 3 6 32 -22 64 -62 32 -39 96 -108 143 -153z m8082 -261 c2 -16 8 -64
11 -108 8 -109 49 -360 86 -527 102 -466 307 -996 543 -1407 36 -63 65 -116
63 -117 -2 -2 -52 1 -112 7 -61 6 -328 13 -595 16 -483 6 -485 6 -537 29 -28
13 -54 24 -56 24 -5 0 -138 61 -227 103 -25 12 -47 22 -50 22 -10 2 -247 124
-325 168 -44 25 -107 60 -139 79 -33 18 -96 55 -140 82 -45 27 -90 54 -101 61
-65 37 -95 58 -95 66 0 11 188 1135 195 1164 4 19 13 20 152 22 153 2 306 20
453 54 94 22 512 161 715 238 72 27 135 50 142 50 6 1 14 -11 17 -26z m8976
-508 c0 -2 -6 -8 -13 -14 -10 -8 -14 -7 -14 2 0 8 6 14 14 14 7 0 13 -1 13 -2z
m-11173 -2017 c-3 -8 -6 -5 -6 6 -1 11 2 17 5 13 3 -3 4 -12 1 -19z m-231
-895 c-2 -9 -9 -19 -16 -21 -9 -3 -11 1 -7 12 4 10 7 22 7 27 0 6 4 8 9 5 5
-4 8 -14 7 -23z m-156 -138 c0 -2 -10 -10 -22 -16 -21 -11 -22 -11 -9 4 13 16
31 23 31 12z"/>
<path d="M12796 33058 c-20 -28 -20 -62 -1 -81 8 -9 63 -48 122 -88 348 -235
848 -635 1176 -942 l59 -54 -31 -184 c-73 -436 -95 -717 -96 -1214 0 -371 8
-526 41 -820 54 -476 173 -1035 292 -1371 l39 -112 -61 -53 c-151 -134 -331
-317 -481 -490 -156 -179 -352 -500 -362 -593 -5 -37 -1 -48 23 -75 36 -39 78
-52 124 -37 28 9 47 29 95 102 96 145 201 268 388 450 175 171 456 405 702
584 128 93 515 354 769 519 387 250 600 631 599 1071 0 314 -71 511 -306 848
-444 638 -986 1213 -1597 1694 -373 293 -846 595 -1190 760 -243 117 -276 126
-304 86z"/>
<path d="M26070 33007 c-188 -89 -289 -142 -485 -260 -913 -547 -1732 -1313
-2360 -2207 -237 -338 -308 -521 -322 -825 -6 -150 13 -286 62 -433 95 -283
274 -512 529 -677 513 -332 810 -541 1092 -766 368 -295 604 -536 775 -791 64
-94 83 -110 135 -110 69 0 122 63 109 131 -4 20 -27 74 -51 121 -138 268 -412
603 -721 882 l-132 119 34 99 c161 468 276 1066 326 1705 16 197 16 807 0
1010 -18 239 -48 488 -82 693 -17 100 -29 189 -26 196 3 7 65 67 139 132 73
65 142 127 153 138 164 153 651 532 900 700 140 95 175 126 175 157 0 28 -36
59 -67 59 -16 -1 -98 -34 -183 -73z"/>
<path d="M16184 23979 c-221 -37 -464 -207 -633 -445 -110 -155 -217 -399
-265 -604 -64 -280 -63 -638 4 -893 68 -258 175 -452 334 -605 151 -145 297
-211 489 -220 177 -8 319 33 476 138 77 52 207 173 274 255 49 60 120 179 173
288 238 497 244 1120 15 1571 -194 381 -518 573 -867 515z m465 -762 c47 -31
91 -94 122 -177 31 -79 38 -263 14 -363 -37 -158 -121 -284 -220 -333 -277
-135 -472 323 -296 691 48 100 96 156 164 190 70 36 155 32 216 -8z"/>
<path d="M23519 23216 c-559 -72 -1068 -399 -1363 -875 -124 -200 -145 -271
-107 -357 37 -83 96 -128 183 -140 46 -6 54 -4 233 70 207 85 424 126 663 126
198 0 305 -18 599 -96 59 -15 65 -15 88 0 35 23 49 62 35 96 -22 52 -225 182
-395 252 -181 75 -389 118 -570 118 -104 0 -106 -6 40 117 214 180 507 350
825 478 91 37 173 74 183 83 26 23 22 83 -7 111 -22 21 -35 23 -163 27 -81 2
-182 -2 -244 -10z"/>
<path d="M19035 21380 c-469 -32 -682 -142 -701 -363 -14 -151 77 -347 235
-507 167 -169 398 -297 655 -361 118 -30 378 -37 512 -15 473 80 899 426 965
783 14 74 5 144 -27 210 -71 148 -276 224 -684 253 -162 11 -786 11 -955 0z
m854 -210 c101 -13 161 -35 161 -60 0 -10 -14 -30 -31 -45 -105 -88 -349 -144
-568 -132 -226 13 -473 112 -459 184 4 22 55 40 147 52 96 12 652 13 750 1z"/>
<path d="M21302 20529 c-471 -45 -802 -385 -953 -977 -36 -143 -66 -347 -75
-504 -6 -95 -10 -118 -23 -122 -35 -10 -231 -46 -316 -58 -123 -18 -658 -17
-785 0 -265 37 -516 90 -664 142 -33 11 -62 20 -65 20 -10 -1 40 -39 124 -95
231 -153 548 -269 875 -322 164 -26 634 -26 800 0 511 80 949 251 1385 540
168 112 186 127 242 209 294 428 340 796 126 1005 -128 125 -392 189 -671 162z"/>
<path d="M14146 12707 c3 -10 9 -15 12 -12 3 3 0 11 -7 18 -10 9 -11 8 -5 -6z"/>
<path d="M14120 12704 c0 -13 18 -39 24 -34 2 3 -2 14 -10 24 -8 11 -14 16
-14 10z"/>
<path d="M14191 12544 c0 -11 3 -14 6 -6 3 7 2 16 -1 19 -3 4 -6 -2 -5 -13z"/>
<path d="M14205 12509 c-4 -6 -5 -12 -2 -15 2 -3 7 2 10 11 7 17 1 20 -8 4z"/>
<path d="M14586 12421 c-4 -7 -5 -15 -2 -18 9 -9 19 4 14 18 -4 11 -6 11 -12
0z"/>
<path d="M15220 12324 c0 -8 -5 -12 -11 -8 -8 4 -9 -1 -4 -17 12 -40 20 -40
22 2 0 21 -1 39 -3 39 -2 0 -4 -7 -4 -16z"/>
<path d="M14281 12244 c0 -11 3 -14 6 -6 3 7 2 16 -1 19 -3 4 -6 -2 -5 -13z"/>
<path d="M14300 12229 c-7 -11 -10 -23 -7 -25 2 -2 9 7 15 21 14 30 7 33 -8 4z"/>
<path d="M15219 12236 c13 -15 13 -19 0 -27 -16 -10 -8 -12 15 -3 22 9 20 21
-6 35 -21 11 -22 11 -9 -5z"/>
<path d="M15225 12180 c-3 -5 -1 -10 4 -10 6 0 11 5 11 10 0 6 -2 10 -4 10 -3
0 -8 -4 -11 -10z"/>
<path d="M15141 12164 c0 -11 3 -14 6 -6 3 7 2 16 -1 19 -3 4 -6 -2 -5 -13z"/>
<path d="M14410 11799 c0 -5 5 -7 10 -4 6 3 10 8 10 11 0 2 -4 4 -10 4 -5 0
-10 -5 -10 -11z"/>
<path d="M15050 11340 c-8 -5 -10 -10 -5 -10 6 0 17 5 25 10 8 5 11 10 5 10
-5 0 -17 -5 -25 -10z"/>
<path d="M15115 11330 c3 -5 10 -10 16 -10 5 0 9 5 9 10 0 6 -7 10 -16 10 -8
0 -12 -4 -9 -10z"/>
<path d="M14869 11313 c-6 -42 -8 -106 -5 -102 7 6 16 109 10 109 -2 0 -4 -3
-5 -7z"/>
<path d="M15068 11313 c6 -2 18 -2 25 0 6 3 1 5 -13 5 -14 0 -19 -2 -12 -5z"/>
<path d="M15158 11313 c6 -2 18 -2 25 0 6 3 1 5 -13 5 -14 0 -19 -2 -12 -5z"/>
<path d="M15117 11299 c7 -7 15 -10 18 -7 3 3 -2 9 -12 12 -14 6 -15 5 -6 -5z"/>
<path d="M15078 11293 c7 -3 16 -2 19 1 4 3 -2 6 -13 5 -11 0 -14 -3 -6 -6z"/>
<path d="M15165 11290 c-8 -13 5 -13 25 0 13 8 13 10 -2 10 -9 0 -20 -4 -23
-10z"/>
<path d="M14850 11188 c0 -9 5 -20 10 -23 13 -8 13 5 0 25 -8 13 -10 13 -10
-2z"/>
<path d="M14827 11161 c-4 -17 -3 -21 5 -13 5 5 8 16 6 23 -3 8 -7 3 -11 -10z"/>
<path d="M14776 11001 c-4 -5 0 -25 8 -43 l15 -33 -6 40 c-7 46 -9 50 -17 36z"/>
<path d="M14766 10930 c4 -29 3 -31 -6 -15 -9 17 -10 16 -5 -7 3 -16 1 -28 -5
-28 -5 0 -10 -6 -10 -14 0 -8 -5 -17 -10 -19 -6 -3 -5 -5 1 -3 6 1 21 18 32
38 18 29 19 40 10 59 -11 22 -12 21 -7 -11z"/>
<path d="M14757 10834 c-4 -4 -7 -14 -7 -23 0 -11 3 -12 11 -4 6 6 10 16 7 23
-2 6 -7 8 -11 4z"/>
<path d="M14705 10800 c-3 -6 1 -7 9 -4 18 7 21 14 7 14 -6 0 -13 -4 -16 -10z"/>
<path d="M14690 10749 c0 -9 9 -24 19 -33 16 -14 23 -15 38 -6 16 10 16 10 -4
5 -17 -5 -25 0 -37 22 -9 17 -15 22 -16 12z"/>
<path d="M15000 10710 c8 -5 22 -9 30 -9 10 0 8 3 -5 9 -27 12 -43 12 -25 0z"/>
<path d="M15158 10713 c7 -3 16 -2 19 1 4 3 -2 6 -13 5 -11 0 -14 -3 -6 -6z"/>
<path d="M15194 10709 c-4 -7 -3 -9 4 -5 5 3 13 0 15 -6 4 -9 6 -10 6 -1 1 17
-16 25 -25 12z"/>
<path d="M15105 10701 c-18 -7 -17 -8 7 -14 15 -4 37 -2 50 3 19 9 18 9 -12 4
-26 -4 -31 -3 -20 5 17 12 4 13 -25 2z"/>
<path d="M14701 10684 c0 -11 3 -14 6 -6 3 7 2 16 -1 19 -3 4 -6 -2 -5 -13z"/>
<path d="M14768 10693 c7 -3 16 -2 19 1 4 3 -2 6 -13 5 -11 0 -14 -3 -6 -6z"/>
<path d="M15003 10683 c9 -2 25 -2 35 0 9 3 1 5 -18 5 -19 0 -27 -2 -17 -5z"/>
<path d="M17845 9250 c-3 -5 -1 -10 4 -10 6 0 11 5 11 10 0 6 -2 10 -4 10 -3
0 -8 -4 -11 -10z"/>
<path d="M14980 9244 c-100 -17 -145 -30 -215 -64 -399 -194 -510 -701 -228
-1048 19 -24 65 -66 102 -93 222 -169 506 -196 744 -72 98 51 229 182 280 280
74 141 98 332 61 482 -71 293 -329 502 -638 516 -44 2 -92 2 -106 -1z m263
-263 c38 -18 94 -57 124 -85 l56 -52 -67 -214 c-37 -118 -87 -279 -112 -357
l-44 -141 -65 -11 c-195 -34 -394 72 -483 257 -61 129 -55 289 15 411 56 96
153 176 257 213 39 14 74 18 151 15 90 -2 107 -6 168 -36z"/>
<path d="M14705 8588 c-20 -67 -31 -199 -18 -222 7 -13 18 11 46 102 20 65 37
121 37 125 0 10 -33 47 -42 47 -4 0 -14 -24 -23 -52z"/>
<path d="M17793 9197 c-4 -6 -1 -7 7 -2 9 6 10 2 5 -16 -7 -23 -7 -24 9 -4 8
11 16 23 16 26 0 10 -30 6 -37 -4z"/>
<path d="M18000 9174 c0 -15 2 -16 9 -5 6 9 11 10 15 2 4 -6 4 -16 0 -23 -5
-7 -3 -8 5 -4 7 5 20 1 29 -7 15 -13 19 -13 31 0 12 13 11 14 -7 9 -15 -5 -22
-2 -27 14 -3 11 -10 20 -15 20 -5 0 -15 3 -24 6 -11 4 -16 0 -16 -12z"/>
<path d="M17816 9145 c-9 -26 -7 -32 5 -12 6 10 9 21 6 23 -2 3 -7 -2 -11 -11z"/>
<path d="M17785 9139 c-4 -6 -5 -12 -2 -15 2 -3 7 2 10 11 7 17 1 20 -8 4z"/>
<path d="M18165 9130 c-3 -6 1 -7 9 -4 18 7 21 14 7 14 -6 0 -13 -4 -16 -10z"/>
<path d="M18028 9123 c7 -3 16 -2 19 1 4 3 -2 6 -13 5 -11 0 -14 -3 -6 -6z"/>
<path d="M17746 9093 c-6 -14 -5 -15 5 -6 7 7 10 15 7 18 -3 3 -9 -2 -12 -12z"/>
<path d="M18240 9096 c0 -8 9 -18 21 -21 12 -4 18 -12 15 -21 -7 -19 8 -18 24
1 10 12 10 15 -4 15 -9 0 -25 9 -36 20 -15 15 -20 16 -20 6z"/>
<path d="M17737 9039 c7 -7 15 -10 18 -7 3 3 -2 9 -12 12 -14 6 -15 5 -6 -5z"/>
<path d="M18250 9014 c0 -14 3 -14 15 -4 8 7 15 14 15 16 0 2 -7 4 -15 4 -8 0
-15 -7 -15 -16z"/>
<path d="M17726 9005 c-9 -26 -7 -32 5 -12 6 10 9 21 6 23 -2 3 -7 -2 -11 -11z"/>
<path d="M18262 8979 c2 -6 8 -10 13 -10 5 0 11 4 13 10 2 6 -4 11 -13 11 -9
0 -15 -5 -13 -11z"/>
<path d="M17696 8945 c-9 -14 -13 -25 -8 -25 5 0 14 11 20 25 6 14 10 25 8 25
-2 0 -11 -11 -20 -25z"/>
<path d="M18248 8939 c5 -35 8 -36 14 -5 3 14 0 27 -7 29 -7 3 -10 -5 -7 -24z"/>
<path d="M18280 8950 c0 -5 5 -10 10 -10 6 0 10 5 10 10 0 6 -4 10 -10 10 -5
0 -10 -4 -10 -10z"/>
<path d="M17725 8937 c-4 -10 -5 -21 -1 -24 10 -10 18 4 13 24 -4 17 -4 17
-12 0z"/>
<path d="M17661 8879 c-6 -17 -8 -36 -4 -43 4 -6 11 7 14 29 9 50 5 56 -10 14z"/>
<path d="M17690 8894 c0 -8 5 -12 10 -9 6 3 10 10 10 16 0 5 -4 9 -10 9 -5 0
-10 -7 -10 -16z"/>
<path d="M18264 8890 c2 -16 20 -14 24 2 3 10 2 10 -6 -1 -7 -9 -11 -10 -15
-2 -4 7 -5 8 -3 1z"/>
<path d="M17623 8780 c-12 -27 -17 -52 -12 -56 5 -3 9 3 9 13 0 10 5 25 11 33
9 12 10 11 6 -8 -3 -13 -1 -20 5 -16 5 3 6 20 3 37 -5 24 -4 28 4 17 12 -17
15 -1 3 17 -5 9 -15 -4 -29 -37z"/>
<path d="M17665 8759 c-4 -6 -5 -12 -2 -15 2 -3 7 2 10 11 7 17 1 20 -8 4z"/>
<path d="M18245 8749 c-11 -17 1 -21 15 -4 8 9 8 15 2 15 -6 0 -14 -5 -17 -11z"/>
<path d="M17585 8700 c-3 -5 -1 -18 4 -27 9 -16 10 -14 11 10 0 28 -5 34 -15
17z"/>
<path d="M17556 8629 c-10 -22 -15 -43 -12 -46 3 -3 10 5 16 18 10 22 10 22 4
-6 -7 -34 -3 -32 18 11 12 24 12 35 3 47 -10 14 -14 11 -29 -24z m21 -1 c-3
-8 -6 -5 -6 6 -1 11 2 17 5 13 3 -3 4 -12 1 -19z"/>
<path d="M18185 8540 c-3 -5 -1 -10 4 -10 6 0 11 5 11 10 0 6 -2 10 -4 10 -3
0 -8 -4 -11 -10z"/>
<path d="M17512 8515 c0 -16 2 -22 5 -12 2 9 2 23 0 30 -3 6 -5 -1 -5 -18z"/>
<path d="M18190 8496 c0 -23 16 -27 17 -5 1 10 -2 19 -8 19 -5 0 -9 -6 -9 -14z"/>
<path d="M17493 8487 c3 -9 3 -17 -2 -17 -4 0 -13 -11 -19 -25 -17 -36 -14
-45 4 -15 l15 25 -5 -24 c-6 -28 5 -17 21 19 8 20 7 28 -5 40 -14 13 -15 12
-9 -3z"/>
<path d="M18165 8483 c4 -10 10 -28 12 -40 3 -13 9 -23 14 -23 12 0 11 6 -6
39 -8 16 -11 31 -8 35 4 3 1 6 -6 6 -9 0 -11 -6 -6 -17z"/>
<path d="M16865 8484 c-154 -24 -302 -109 -391 -226 -243 -316 -141 -742 221
-924 l100 -51 125 -2 c83 -1 143 3 180 13 30 8 58 12 62 10 5 -3 8 0 8 5 0 6
7 11 16 11 8 0 13 -4 10 -8 -2 -4 5 -8 17 -9 12 0 16 1 10 4 -7 3 -13 8 -13
12 0 13 80 60 86 50 7 -13 26 0 21 14 -4 14 62 69 74 61 5 -3 6 3 2 12 -4 12
-2 15 8 12 8 -3 13 -10 12 -15 -1 -5 4 -10 11 -10 14 0 19 34 5 42 -5 4 -6 -2
-2 -12 5 -14 3 -16 -7 -6 -11 10 -8 20 15 53 15 22 32 40 38 40 6 0 8 3 4 6
-3 4 5 28 18 53 13 26 30 74 39 107 18 71 22 257 6 298 -6 16 -8 36 -6 43 3 8
2 12 -3 9 -11 -7 -31 61 -24 82 4 15 3 15 -7 2 -9 -12 -11 -10 -7 13 3 18 0
26 -7 24 -10 -3 -46 33 -46 47 0 12 -117 114 -170 148 -110 70 -286 110 -405
92z m175 -210 c35 -7 23 -24 -17 -24 -12 0 -48 -10 -79 -21 -53 -20 -56 -23
-38 -35 58 -40 74 -87 53 -151 -18 -58 -55 -99 -112 -128 -77 -38 -141 -30
-184 23 -11 13 -14 11 -23 -14 -21 -55 -32 -139 -26 -204 5 -58 4 -63 -9 -46
-57 76 -73 233 -36 340 40 113 138 210 251 249 46 16 163 22 220 11z"/>
<path d="M18163 8395 c-3 -9 -3 -18 -1 -21 3 -3 8 4 11 16 6 23 -1 27 -10 5z"/>
<path d="M17416 8334 c-13 -28 -14 -39 -5 -50 7 -8 14 -12 17 -9 9 9 9 44 0
39 -11 -7 -10 3 3 28 6 11 9 22 7 24 -3 2 -12 -12 -22 -32z m8 -40 c3 -8 2
-12 -4 -9 -6 3 -10 10 -10 16 0 14 7 11 14 -7z"/>
<path d="M18175 8320 c-3 -6 1 -7 9 -4 18 7 21 14 7 14 -6 0 -13 -4 -16 -10z"/>
<path d="M18167 8282 c1 -8 3 -28 3 -44 0 -40 6 -33 13 15 3 20 2 35 -3 32 -4
-3 -10 -2 -13 2 -2 5 -2 2 0 -5z"/>
<path d="M17464 8230 c2 -16 20 -14 24 2 3 10 2 10 -6 -1 -7 -9 -11 -10 -15
-2 -4 7 -5 8 -3 1z"/>
<path d="M17500 8221 c0 -6 5 -13 10 -16 6 -3 10 1 10 9 0 9 -4 16 -10 16 -5
0 -10 -4 -10 -9z"/>
<path d="M17552 8060 c0 -14 2 -19 5 -12 2 6 2 18 0 25 -3 6 -5 1 -5 -13z"/>
<path d="M18085 8059 c-10 -30 -2 -32 12 -3 6 13 7 24 3 24 -5 0 -12 -9 -15
-21z"/>
<path d="M18112 8060 c-6 -11 -12 -28 -11 -37 0 -12 4 -8 11 10 5 15 14 27 19
27 5 0 9 5 9 10 0 16 -14 11 -28 -10z"/>
<path d="M17582 8041 c-8 -4 -10 -15 -6 -26 7 -17 8 -16 16 5 10 27 7 32 -10
21z"/>
<path d="M18087 7961 c-4 -17 -3 -21 5 -13 5 5 8 16 6 23 -3 8 -7 3 -11 -10z"/>
<path d="M17572 7945 c0 -16 2 -22 5 -12 2 9 2 23 0 30 -3 6 -5 -1 -5 -18z"/>
<path d="M18107 7909 c4 -13 8 -18 11 -10 2 7 -1 18 -6 23 -8 8 -9 4 -5 -13z"/>
<path d="M17567 7739 c4 -13 8 -18 11 -10 2 7 -1 18 -6 23 -8 8 -9 4 -5 -13z"/>
<path d="M18081 7734 c0 -11 3 -14 6 -6 3 7 2 16 -1 19 -3 4 -6 -2 -5 -13z"/>
<path d="M17576 7693 c-6 -14 -5 -15 5 -6 7 7 10 15 7 18 -3 3 -9 -2 -12 -12z"/>
<path d="M18057 7571 c-4 -17 -3 -21 5 -13 5 5 8 16 6 23 -3 8 -7 3 -11 -10z"/>
<path d="M17490 7570 c0 -5 5 -10 10 -10 6 0 10 5 10 10 0 6 -4 10 -10 10 -5
0 -10 -4 -10 -10z"/>
<path d="M18020 7565 c0 -8 2 -15 4 -15 2 0 6 7 10 15 3 8 1 15 -4 15 -6 0
-10 -7 -10 -15z"/>
<path d="M17463 7543 c4 -6 1 -13 -5 -16 -7 -2 3 -4 23 -4 22 1 36 6 36 14 0
7 -6 13 -14 13 -7 0 -13 -5 -13 -11 0 -8 -6 -7 -17 2 -9 8 -14 9 -10 2z"/>
<path d="M18021 7533 c-1 -17 16 -25 25 -12 4 7 3 9 -4 5 -5 -3 -13 0 -15 6
-4 9 -6 10 -6 1z"/>
<path d="M18015 7490 c3 -5 8 -10 11 -10 2 0 4 5 4 10 0 6 -5 10 -11 10 -5 0
-7 -4 -4 -10z"/>
<path d="M18001 7464 c0 -11 3 -14 6 -6 3 7 2 16 -1 19 -3 4 -6 -2 -5 -13z"/>
<path d="M18022 7410 c0 -14 2 -19 5 -12 2 6 2 18 0 25 -3 6 -5 1 -5 -13z"/>
<path d="M17335 7379 c-4 -6 -4 -13 -1 -16 3 -4 6 -1 6 6 0 7 5 9 12 5 7 -4 8
-3 4 4 -9 15 -13 15 -21 1z"/>
<path d="M18017 7343 c-4 -3 -7 -13 -7 -22 1 -13 3 -13 11 2 11 19 8 33 -4 20z"/>
<path d="M17256 7304 c-4 -10 -1 -14 6 -12 15 5 23 28 10 28 -5 0 -13 -7 -16
-16z"/>
<path d="M16759 7271 c7 -13 6 -24 -4 -38 -13 -18 -13 -22 1 -27 23 -9 31 -7
15 3 -10 6 -11 13 -2 29 15 28 14 39 -4 46 -12 4 -13 2 -6 -13z"/>
<path d="M16737 7263 c-4 -3 -7 -11 -7 -17 0 -6 5 -5 12 2 6 6 9 14 7 17 -3 3
-9 2 -12 -2z"/>
<path d="M16710 7234 c0 -6 -23 -35 -50 -66 -33 -37 -44 -55 -33 -54 10 2 16
5 13 8 -3 2 7 16 23 30 15 14 27 29 27 33 0 5 7 17 17 27 9 10 13 21 10 25 -4
3 -7 2 -7 -3z"/>
<path d="M16791 7224 c0 -11 3 -14 6 -6 3 7 2 16 -1 19 -3 4 -6 -2 -5 -13z"/>
<path d="M17935 7078 c-9 -36 -8 -50 2 -64 12 -16 13 -14 7 15 -5 25 -4 32 5
27 6 -4 9 -12 6 -17 -4 -5 1 -9 11 -9 15 0 15 2 1 23 -8 13 -17 34 -19 47 -2
17 -6 11 -13 -22z"/>
<path d="M17921 7094 c0 -11 3 -14 6 -6 3 7 2 16 -1 19 -3 4 -6 -2 -5 -13z"/>
<path d="M16566 7062 l-30 -37 37 34 c38 36 42 42 30 40 -5 0 -21 -17 -37 -37z"/>
<path d="M16626 7087 c3 -10 9 -15 12 -12 3 3 0 11 -7 18 -10 9 -11 8 -5 -6z"/>
<path d="M16606 7071 c-4 -7 -5 -15 -2 -18 9 -9 19 4 14 18 -4 11 -6 11 -12 0z"/>
<path d="M16510 7005 c-10 -13 -11 -18 -1 -28 10 -9 11 -8 6 4 -8 21 13 35 28
20 8 -8 8 -11 -1 -11 -16 0 -15 -17 1 -23 15 -5 16 20 3 41 -10 16 -21 15 -36
-3z"/>
<path d="M15480 6964 c-281 -60 -468 -338 -420 -621 12 -75 59 -183 104 -242
14 -19 26 -41 26 -48 0 -7 4 -12 8 -10 9 2 92 -69 92 -79 0 -4 -11 1 -25 10
-14 9 -25 13 -25 8 0 -5 11 -14 25 -20 16 -7 23 -17 19 -27 -3 -8 -1 -15 6
-15 6 0 8 5 5 10 -3 6 -2 10 4 10 5 0 12 -4 16 -9 3 -6 14 -9 25 -8 10 1 16 5
14 9 -3 4 2 5 10 2 8 -3 17 -12 20 -20 3 -8 11 -14 18 -14 9 0 8 3 -2 10 -8 5
-10 10 -5 10 12 0 43 -20 31 -20 -5 0 -3 -6 3 -14 6 -7 9 -21 5 -30 -3 -9 -2
-16 4 -16 6 0 9 11 7 25 -1 14 3 26 9 26 11 1 108 -2 186 -6 25 -1 52 1 61 6
8 4 26 9 40 11 13 2 30 7 37 12 7 4 15 6 18 3 8 -7 -63 -57 -82 -57 -16 0 -16
1 2 14 17 13 15 13 -18 3 -21 -7 -38 -15 -38 -19 0 -5 -8 -8 -17 -8 -9 0 -13
-3 -10 -7 4 -3 18 0 32 7 20 11 27 11 40 0 13 -11 19 -10 34 4 17 16 19 16 25
0 4 -9 9 -14 13 -11 3 4 0 13 -7 22 -10 12 -10 15 4 15 9 0 21 11 28 24 6 14
17 27 25 30 9 4 12 1 7 -7 -4 -6 4 -1 19 12 16 14 31 20 39 15 7 -4 10 -4 6 0
-8 9 14 36 24 30 4 -3 12 5 18 16 6 11 17 20 25 20 8 0 15 3 15 8 0 17 71 83
83 76 9 -6 9 -4 0 6 -10 11 -9 18 6 34 11 12 20 26 21 31 1 14 33 99 39 105 7
6 11 34 15 110 1 30 6 66 10 80 6 22 5 22 -4 5 l-10 -20 4 20 c2 11 7 29 12
39 5 13 4 17 -4 13 -17 -11 -20 25 -4 53 13 23 13 23 -1 7 -10 -12 -17 -15
-22 -7 -4 6 1 18 11 26 18 14 18 15 -5 8 -16 -4 -21 -3 -17 5 4 6 2 11 -3 11
-6 0 -11 5 -11 11 0 25 -76 134 -129 185 -66 66 -168 118 -266 139 -85 18
-140 18 -225 -1z m214 -183 c15 -6 5 -11 -40 -20 -32 -6 -70 -18 -83 -25 l-24
-13 22 -13 c13 -6 29 -27 37 -46 54 -128 -141 -286 -245 -199 -28 24 -31 25
-39 8 -17 -33 -23 -75 -24 -162 l0 -86 -25 52 c-92 197 3 425 207 496 47 17
180 21 214 8z m-368 -831 c8 0 14 -4 14 -10 0 -13 -11 -12 -32 4 -10 7 -14 16
-11 20 4 4 9 2 11 -3 2 -6 10 -11 18 -11z"/>
<path d="M16969 6951 c11 -7 11 -10 0 -15 -14 -6 26 3 47 11 6 2 15 -6 21 -19
l11 -23 -1 23 c-1 12 -4 22 -7 23 -35 7 -82 6 -71 0z"/>
<path d="M17373 6948 c16 -10 44 -10 51 0 2 4 -11 8 -29 8 -21 0 -30 -3 -22
-8z"/>
<path d="M17100 6940 c-11 -7 -11 -10 -2 -10 7 0 10 -5 7 -10 -4 -6 -11 -8
-16 -4 -5 3 -15 2 -22 -3 -24 -18 -69 -34 -61 -22 4 7 2 10 -5 8 -7 -3 -12 -8
-11 -12 0 -5 -12 -18 -27 -30 -57 -42 -121 -106 -114 -113 3 -4 0 -4 -6 0 -18
10 -16 26 3 26 8 0 12 5 9 10 -5 8 -12 7 -23 -2 -13 -11 -15 -11 -10 3 3 9 1
16 -5 16 -7 0 -13 -12 -14 -25 -1 -17 2 -21 7 -12 6 10 10 8 15 -11 4 -17 -4
-47 -25 -94 -18 -39 -32 -80 -32 -92 0 -13 -4 -23 -9 -23 -5 0 -9 -8 -9 -17 0
-15 2 -15 9 -4 13 20 12 -74 0 -106 -5 -15 -5 -22 0 -19 5 4 17 -15 27 -41 10
-27 22 -54 28 -62 7 -10 7 -13 1 -9 -15 9 -14 -34 1 -49 7 -7 14 -18 17 -25 2
-7 8 -10 12 -6 4 4 -2 17 -14 29 -11 12 -18 26 -14 32 3 5 10 1 16 -9 5 -11
21 -32 36 -47 20 -22 23 -30 12 -36 -8 -5 -9 -11 -3 -15 6 -3 12 0 15 6 3 9
11 7 28 -8 13 -12 38 -29 56 -39 18 -10 29 -23 26 -28 -3 -5 3 -7 13 -3 11 3
26 1 34 -4 13 -9 13 -11 0 -21 -12 -9 -11 -9 5 -4 28 10 86 6 102 -7 7 -5 20
-8 28 -4 9 3 13 2 10 -4 -3 -6 0 -10 9 -10 8 0 16 6 19 13 2 8 24 12 59 12 31
0 54 3 52 7 -5 8 52 28 60 21 3 -4 6 -1 6 5 0 7 7 12 16 12 8 0 12 -4 9 -10
-4 -6 6 -10 22 -9 25 0 26 1 8 9 -23 10 -21 11 18 16 19 2 25 -1 21 -9 -4 -7
1 -4 11 5 15 13 16 20 6 31 -9 12 -8 16 6 22 10 5 20 8 23 7 3 0 7 9 7 20 2
18 -1 17 -26 -8 -16 -16 -27 -33 -25 -39 3 -6 -3 -11 -13 -11 -10 -1 -27 -5
-38 -9 -11 -4 -2 6 21 22 22 17 57 50 79 74 21 24 34 38 30 30 -5 -9 -4 -12 3
-7 6 4 8 14 5 23 -5 12 -3 14 7 8 8 -5 11 -4 6 3 -8 14 34 113 46 106 4 -3 8
-1 8 5 0 5 -5 11 -11 13 -7 2 -7 12 0 31 6 15 8 34 4 44 -5 12 -3 14 8 8 11
-6 12 -5 2 6 -7 7 -13 35 -13 61 0 27 -4 56 -9 66 -16 29 -36 87 -33 95 1 4
-3 7 -9 7 -8 0 -8 4 0 14 9 11 9 16 0 22 -8 4 -9 3 -5 -4 4 -7 2 -12 -3 -12
-6 0 -11 7 -11 16 0 8 -4 12 -10 9 -10 -6 -14 6 -11 35 1 11 0 12 -7 3 -6 -9
-19 -2 -46 27 -21 22 -42 40 -48 40 -6 0 -27 10 -47 22 -19 12 -42 23 -50 25
-8 1 -18 8 -22 15 -5 7 -9 8 -9 3 0 -12 -69 -7 -85 5 -6 5 -32 3 -58 -3 -37
-8 -50 -8 -60 3 -10 10 -6 11 18 6 22 -5 26 -4 15 4 -19 12 -31 12 -50 0z
m145 -181 c-11 -4 -38 -16 -60 -25 -35 -14 -38 -17 -20 -24 25 -9 50 -38 42
-47 -4 -3 -2 -12 4 -20 8 -9 8 -13 1 -13 -7 0 -9 -7 -5 -17 4 -11 3 -14 -5 -9
-7 4 -10 2 -6 -7 6 -16 -47 -77 -67 -77 -8 0 -3 7 9 16 12 8 22 20 22 25 0 6
-15 -6 -34 -25 -37 -40 -61 -45 -83 -18 -8 9 -12 11 -8 5 10 -20 -2 -15 -27
10 -13 12 -22 21 -22 19 1 -2 -5 -24 -12 -49 -8 -25 -14 -69 -14 -96 0 -46 -7
-59 -14 -25 -2 7 -8 27 -15 43 -10 23 -10 34 -1 49 9 14 9 16 0 11 -8 -5 -10
2 -5 26 4 19 7 42 8 52 1 9 5 17 10 17 4 0 5 5 2 10 -3 6 -1 10 6 10 7 0 9 3
6 6 -12 12 14 46 30 40 13 -5 13 -4 4 7 -9 11 -8 17 5 28 13 11 17 10 25 -2 8
-12 10 -12 8 1 -3 30 1 39 24 46 12 5 25 7 30 6 4 -1 7 2 7 7 0 15 46 26 113
27 42 1 55 -1 42 -7z"/>
<path d="M17068 6533 c7 -3 16 -2 19 1 4 3 -2 6 -13 5 -11 0 -14 -3 -6 -6z"/>
<path d="M17240 6946 c0 -2 7 -6 15 -10 8 -3 15 -1 15 4 0 6 -7 10 -15 10 -8
0 -15 -2 -15 -4z"/>
<path d="M17287 6939 c7 -7 15 -10 18 -7 3 3 -2 9 -12 12 -14 6 -15 5 -6 -5z"/>
<path d="M17328 6943 c7 -3 16 -2 19 1 4 3 -2 6 -13 5 -11 0 -14 -3 -6 -6z"/>
<path d="M16434 6918 l-19 -23 23 19 c21 18 27 26 19 26 -2 0 -12 -10 -23 -22z"/>
<path d="M17390 6930 l-45 -7 42 -1 c23 -1 45 3 48 8 3 6 5 9 3 8 -2 0 -23 -4
-48 -8z"/>
<path d="M16985 6919 c-19 -9 -18 -9 3 -5 12 2 22 0 22 -6 0 -5 5 -6 10 -3 11
7 4 26 -8 24 -4 0 -16 -5 -27 -10z"/>
<path d="M16450 6900 c0 -5 5 -10 10 -10 6 0 10 5 10 10 0 6 -4 10 -10 10 -5
0 -10 -4 -10 -10z"/>
<path d="M17398 6898 c6 -6 18 -8 28 -6 14 3 12 5 -9 10 -19 3 -25 2 -19 -4z"/>
<path d="M16895 6870 c-3 -5 -3 -10 2 -10 4 0 1 -5 -7 -10 -10 -6 -11 -10 -2
-10 6 0 15 0 19 0 10 -1 13 29 3 35 -5 3 -11 1 -15 -5z"/>
<path d="M16946 6863 c-6 -14 -5 -15 5 -6 7 7 10 15 7 18 -3 3 -9 -2 -12 -12z"/>
<path d="M17463 6861 c8 -9 12 -10 15 -2 2 6 7 9 11 7 4 -3 13 -1 20 3 8 5 -1
8 -22 7 -29 -1 -33 -4 -24 -15z"/>
<path d="M16354 6838 l-19 -23 23 19 c21 18 27 26 19 26 -2 0 -12 -10 -23 -22z"/>
<path d="M17496 6835 c4 -8 11 -15 16 -15 6 0 5 6 -2 15 -7 8 -14 15 -16 15
-2 0 -1 -7 2 -15z"/>
<path d="M16370 6820 c0 -5 5 -10 10 -10 6 0 10 5 10 10 0 6 -4 10 -10 10 -5
0 -10 -4 -10 -10z"/>
<path d="M16860 6789 c0 -5 5 -7 10 -4 6 3 10 8 10 11 0 2 -4 4 -10 4 -5 0
-10 -5 -10 -11z"/>
<path d="M16273 6769 c-13 -13 -6 -42 8 -33 6 3 16 1 23 -5 9 -8 13 -6 13 7 0
18 -15 42 -26 42 -4 0 -12 -5 -18 -11z m37 -19 c0 -5 -9 -6 -20 -3 -11 3 -17
9 -15 14 7 10 35 1 35 -11z"/>
<path d="M16229 6723 c-12 -16 -12 -17 2 -6 9 7 20 9 24 5 5 -4 5 -1 1 6 -9
16 -11 15 -27 -5z"/>
<path d="M16803 6725 c0 -8 4 -15 9 -15 4 0 8 7 8 15 0 8 -4 15 -8 15 -5 0 -9
-7 -9 -15z"/>
<path d="M17626 6695 c9 -14 22 -25 29 -25 13 0 29 40 20 49 -3 2 -5 -2 -5
-10 0 -12 -2 -11 -11 1 -9 13 -10 12 -5 -2 3 -10 1 -20 -4 -23 -6 -4 -10 3
-10 14 0 12 -7 21 -15 21 -14 0 -13 -3 1 -25z"/>
<path d="M16185 6690 c-3 -6 1 -7 9 -4 18 7 21 14 7 14 -6 0 -13 -4 -16 -10z"/>
<path d="M17610 6685 c0 -5 5 -17 10 -25 5 -8 10 -10 10 -5 0 6 -5 17 -10 25
-5 8 -10 11 -10 5z"/>
<path d="M16191 6666 c-9 -10 -8 -15 2 -19 8 -3 13 3 13 14 0 23 0 23 -15 5z"/>
<path d="M16144 6648 c-12 -14 -13 -18 -3 -10 9 6 18 10 21 7 2 -3 5 2 5 10 0
19 0 19 -23 -7z"/>
<path d="M16220 6661 c0 -6 4 -13 10 -16 6 -3 7 1 4 9 -7 18 -14 21 -14 7z"/>
<path d="M17636 6641 c-4 -5 3 -7 14 -4 23 6 26 13 6 13 -8 0 -17 -4 -20 -9z"/>
<path d="M16741 6624 c0 -11 3 -14 6 -6 3 7 2 16 -1 19 -3 4 -6 -2 -5 -13z"/>
<path d="M17647 6595 c3 -16 12 -36 20 -43 18 -18 17 -12 -7 34 -18 34 -19 35
-13 9z"/>
<path d="M16728 6588 c-10 -25 6 -42 22 -23 7 8 10 18 6 22 -3 3 -6 0 -7 -8 0
-8 -3 -6 -8 5 -6 16 -9 17 -13 4z"/>
<path d="M17841 6540 c0 -33 1 -34 10 -11 6 16 6 28 -1 35 -7 7 -10 -1 -9 -24z"/>
<path d="M16720 6521 c0 -6 4 -13 10 -16 6 -3 7 1 4 9 -7 18 -14 21 -14 7z"/>
<path d="M17849 6470 c-3 -8 -1 -28 6 -44 l12 -28 7 32 c3 18 4 35 1 38 -3 3
-5 -3 -6 -14 -1 -14 -3 -13 -8 6 -5 18 -8 21 -12 10z"/>
<path d="M17653 6431 c-8 -24 -8 -31 3 -35 7 -3 16 0 20 6 5 7 2 8 -6 3 -10
-6 -12 -4 -7 8 4 10 10 24 13 32 3 8 2 15 -3 15 -5 0 -14 -13 -20 -29z"/>
<path d="M17841 6374 c0 -11 3 -14 6 -6 3 7 2 16 -1 19 -3 4 -6 -2 -5 -13z"/>
<path d="M17656 6361 c-10 -11 -16 -26 -13 -33 4 -10 6 -10 6 1 1 8 9 20 18
27 10 7 15 15 12 18 -3 3 -14 -3 -23 -13z"/>
<path d="M16730 6360 c0 -5 5 -10 10 -10 6 0 10 5 10 10 0 6 -4 10 -10 10 -5
0 -10 -4 -10 -10z"/>
<path d="M16760 6346 c0 -8 -6 -16 -12 -19 -7 -2 -1 -4 14 -3 22 1 24 4 17 19
-12 21 -19 22 -19 3z"/>
<path d="M16137 6254 c-3 -10 -15 -33 -27 -51 -14 -20 -17 -34 -10 -38 6 -4
10 -3 9 2 -3 20 2 27 12 13 8 -12 9 -9 4 10 -4 18 -3 21 3 11 15 -21 34 21 24
50 -8 21 -9 21 -15 3z m5 -36 c-7 -7 -12 -8 -12 -2 0 14 12 26 19 19 2 -3 -1
-11 -7 -17z"/>
<path d="M17585 6220 c-4 -6 -10 -8 -15 -5 -5 3 -12 0 -16 -6 -5 -8 -3 -9 6
-4 10 6 12 4 6 -10 -4 -11 -2 -22 6 -27 21 -13 24 -10 24 27 -1 38 -2 40 -11
25z"/>
<path d="M17790 6215 c-7 -9 -10 -18 -7 -21 3 -3 10 4 17 15 13 25 8 27 -10 6z"/>
<path d="M16806 6196 c3 -9 11 -16 16 -16 13 0 5 23 -10 28 -7 2 -10 -2 -6
-12z"/>
<path d="M16140 6180 c0 -5 5 -10 10 -10 6 0 10 5 10 10 0 6 -4 10 -10 10 -5
0 -10 -4 -10 -10z"/>
<path d="M16890 6128 c-12 -22 -12 -22 6 -6 10 10 15 20 12 24 -4 3 -12 -5
-18 -18z"/>
<path d="M16928 6123 c6 -2 12 -11 12 -18 0 -8 5 -17 10 -20 15 -10 43 3 35
15 -5 8 -12 7 -23 -2 -13 -11 -15 -11 -10 4 6 15 -11 30 -30 27 -4 0 -1 -3 6
-6z"/>
<path d="M17770 6100 c-8 -5 -10 -10 -5 -10 6 0 17 5 25 10 8 5 11 10 5 10 -5
0 -17 -5 -25 -10z"/>
<path d="M16011 6058 c-21 -26 -22 -29 -4 -18 22 14 48 50 36 49 -5 0 -19 -14
-32 -31z"/>
<path d="M17765 6070 c-3 -5 -1 -10 4 -10 6 0 11 5 11 10 0 6 -2 10 -4 10 -3
0 -8 -4 -11 -10z"/>
<path d="M16035 6040 c-10 -11 -15 -20 -11 -20 11 0 39 30 34 36 -3 2 -13 -5
-23 -16z"/>
<path d="M15154 6025 c-1 -14 2 -25 7 -25 5 0 9 7 9 15 0 13 4 14 21 5 12 -7
18 -18 15 -26 -4 -12 -2 -12 14 -4 23 12 26 21 8 18 -7 -2 -12 3 -10 10 1 6
-7 12 -17 12 -11 0 -23 5 -26 10 -11 17 -20 11 -21 -15z"/>
<path d="M16053 6025 l-22 -23 22 2 c15 1 23 8 23 23 1 13 1 23 0 22 0 0 -11
-11 -23 -24z"/>
<path d="M17096 6038 c3 -4 -1 -8 -8 -8 -8 0 -6 -5 5 -11 12 -7 23 -6 38 4 19
14 19 15 -10 19 -16 2 -28 1 -25 -4z"/>
<path d="M17232 6033 c-26 -13 -30 -18 -19 -25 9 -4 25 -4 39 2 21 10 21 10
-7 6 l-30 -5 33 14 c17 8 32 17 32 20 0 9 -14 5 -48 -12z"/>
<path d="M17290 6036 c-12 -15 -3 -26 19 -25 12 0 11 3 -4 10 -16 7 -14 9 12
6 34 -4 36 7 4 16 -11 3 -25 -1 -31 -7z"/>
<path d="M15116 6024 c-4 -10 -13 -13 -28 -9 -20 5 -21 5 -5 -5 13 -9 22 -9
32 0 10 8 14 8 18 -2 4 -9 6 -7 6 4 1 23 -15 32 -23 12z"/>
<path d="M17168 6023 c7 -3 16 -2 19 1 4 3 -2 6 -13 5 -11 0 -14 -3 -6 -6z"/>
<path d="M15986 6007 c3 -10 9 -15 12 -12 3 3 0 11 -7 18 -10 9 -11 8 -5 -6z"/>
<path d="M17048 6013 c7 -3 16 -2 19 1 4 3 -2 6 -13 5 -11 0 -14 -3 -6 -6z"/>
<path d="M15955 6001 c8 -14 -24 -42 -38 -34 -7 4 -6 -1 2 -10 17 -21 31 -22
31 -2 0 8 7 15 15 15 17 0 18 2 9 24 -3 9 -10 16 -16 16 -5 0 -7 -4 -3 -9z"/>
<path d="M15015 5970 c-3 -6 1 -7 9 -4 18 7 21 14 7 14 -6 0 -13 -4 -16 -10z"/>
<path d="M15211 5966 c-10 -11 -10 -19 -1 -33 11 -17 11 -17 5 1 -3 11 0 23 7
27 7 4 10 11 7 14 -4 3 -12 -1 -18 -9z"/>
<path d="M14948 5963 c7 -3 16 -2 19 1 4 3 -2 6 -13 5 -11 0 -14 -3 -6 -6z"/>
<path d="M14916 5949 c3 -5 0 -9 -7 -9 -7 0 -10 -2 -7 -5 3 -3 16 -2 28 3 l24
9 -22 5 c-12 4 -20 2 -16 -3z"/>
<path d="M15970 5945 c-10 -12 -10 -15 4 -15 9 0 16 7 16 15 0 8 -2 15 -4 15
-2 0 -9 -7 -16 -15z"/>
<path d="M14862 5941 c-11 -6 -9 -9 5 -13 12 -3 20 0 20 8 0 16 -6 17 -25 5z"/>
<path d="M15238 5943 c6 -2 18 -2 25 0 6 3 1 5 -13 5 -14 0 -19 -2 -12 -5z"/>
<path d="M14995 5930 c-3 -6 1 -7 9 -4 18 7 21 14 7 14 -6 0 -13 -4 -16 -10z"/>
<path d="M15248 5923 c7 -3 16 -2 19 1 4 3 -2 6 -13 5 -11 0 -14 -3 -6 -6z"/>
<path d="M14777 5913 c-4 -3 -24 -9 -44 -13 l-38 -8 36 -1 c19 0 44 6 55 14
10 8 14 15 8 15 -6 0 -14 -3 -17 -7z"/>
<path d="M17625 5893 c10 -14 11 -23 5 -23 -6 0 -8 -5 -5 -10 8 -13 40 18 41
39 1 11 -8 16 -27 16 -27 1 -28 0 -14 -22z m35 -4 c0 -14 -17 -10 -23 5 -4 10
-1 13 9 9 7 -3 14 -9 14 -14z"/>
<path d="M15360 5902 c0 -7 11 -17 25 -22 34 -13 32 -24 -2 -16 -27 5 -27 5
-5 -6 18 -9 26 -8 38 4 14 14 13 16 -13 22 -15 4 -31 13 -35 19 -6 9 -8 9 -8
-1z"/>
<path d="M15808 5886 c-21 -29 -9 -54 18 -36 16 10 16 11 2 6 -22 -7 -22 -2
-2 29 21 31 5 32 -18 1z"/>
<path d="M14626 5872 c-2 -4 14 -8 37 -9 31 -1 37 1 22 7 -26 11 -53 12 -59 2z"/>
<path d="M14733 5873 c9 -2 23 -2 30 0 6 3 -1 5 -18 5 -16 0 -22 -2 -12 -5z"/>
<path d="M15500 5870 c0 -5 -10 -11 -22 -13 -20 -4 -20 -4 4 -6 15 0 30 4 33
9 3 6 12 10 18 10 7 0 6 -4 -3 -11 -12 -8 -10 -9 9 -4 12 4 39 7 58 7 54 0 33
7 -35 12 -34 3 -62 1 -62 -4z"/>
<path d="M14588 5863 c7 -3 16 -2 19 1 4 3 -2 6 -13 5 -11 0 -14 -3 -6 -6z"/>
<path d="M14780 5860 c0 -5 -7 -10 -17 -10 -9 0 -14 -3 -10 -6 8 -8 47 5 47
17 0 5 -4 9 -10 9 -5 0 -10 -4 -10 -10z"/>
<path d="M14550 5839 c0 -5 5 -7 10 -4 6 3 10 8 10 11 0 2 -4 4 -10 4 -5 0
-10 -5 -10 -11z"/>
<path d="M14480 5796 c0 -9 5 -16 10 -16 6 0 10 4 10 9 0 6 -4 13 -10 16 -5 3
-10 -1 -10 -9z"/>
<path d="M14520 5722 c0 -4 10 -13 23 -21 22 -14 22 -14 3 8 -20 22 -26 25
-26 13z"/>
<path d="M14605 5670 c3 -5 11 -10 16 -10 6 0 7 5 4 10 -3 6 -11 10 -16 10 -6
0 -7 -4 -4 -10z"/>
<path d="M14693 5662 c15 -10 24 -22 20 -26 -4 -4 1 -4 10 0 16 6 14 9 -13 25
-39 24 -54 25 -17 1z"/>
<path d="M14725 5670 c11 -5 27 -9 35 -9 9 0 8 4 -5 9 -11 5 -27 9 -35 9 -9 0
-8 -4 5 -9z"/>
<path d="M17200 5676 c0 -2 9 -6 20 -9 11 -3 20 -1 20 4 0 5 -9 9 -20 9 -11 0
-20 -2 -20 -4z"/>
<path d="M17355 5670 c6 -10 2 -11 -18 -6 -14 3 -28 3 -30 -1 -3 -5 8 -9 24
-10 30 -2 47 11 28 23 -8 5 -9 3 -4 -6z"/>
<path d="M14650 5661 c0 -9 30 -24 36 -18 2 1 -6 8 -16 15 -11 7 -20 8 -20 3z"/>
<path d="M17228 5643 c6 -2 18 -2 25 0 6 3 1 5 -13 5 -14 0 -19 -2 -12 -5z"/>
<path d="M14750 5620 c8 -5 22 -9 30 -9 10 0 8 3 -5 9 -27 12 -43 12 -25 0z"/>
</g>
</svg>
